<svg width="176" height="32" viewBox="0 0 176 32" fill="none" xmlns="http://www.w3.org/2000/svg">
<g clip-path="url(#clip0_601_10)">
<path d="M43.84 25L48.256 7.48H52.12L56.56 25H53.488L52.528 20.752H47.872L46.912 25H43.84ZM48.424 18.304H51.976L50.92 13.6C50.744 12.816 50.592 12.112 50.464 11.488C50.336 10.848 50.248 10.384 50.2 10.096C50.152 10.384 50.064 10.848 49.936 11.488C49.824 12.112 49.672 12.808 49.48 13.576L48.424 18.304ZM59.2866 25V22.144L66.3186 10.264H59.4546V7.48H69.6306V10.336L62.5746 22.216H69.8946V25H59.2866ZM73.8933 25V7.48H84.4053V10.096H76.8453V14.656H83.5653V17.248H76.8453V22.384H84.4053V25H73.8933ZM87.9959 25V7.48H93.5399C94.7079 7.48 95.7159 7.696 96.5639 8.128C97.4279 8.56 98.0999 9.168 98.5799 9.952C99.0599 10.72 99.2999 11.632 99.2999 12.688C99.2999 13.84 99.0039 14.856 98.4119 15.736C97.8359 16.616 97.0519 17.24 96.0599 17.608L99.5399 25H96.1799L93.1319 18.04H90.9959V25H87.9959ZM90.9959 15.4H93.5399C94.3879 15.4 95.0519 15.168 95.5319 14.704C96.0119 14.24 96.2519 13.6 96.2519 12.784C96.2519 11.952 96.0119 11.304 95.5319 10.84C95.0519 10.36 94.3879 10.12 93.5399 10.12H90.9959V15.4ZM107.763 25.24C106.643 25.24 105.667 25.032 104.835 24.616C104.019 24.184 103.387 23.584 102.939 22.816C102.507 22.032 102.291 21.112 102.291 20.056V12.424C102.291 11.368 102.507 10.456 102.939 9.688C103.387 8.904 104.019 8.304 104.835 7.888C105.667 7.456 106.643 7.24 107.763 7.24C108.899 7.24 109.875 7.456 110.691 7.888C111.507 8.304 112.131 8.904 112.562 9.688C113.01 10.456 113.234 11.36 113.234 12.4V20.056C113.234 21.112 113.01 22.032 112.562 22.816C112.131 23.584 111.507 24.184 110.691 24.616C109.875 25.032 108.899 25.24 107.763 25.24ZM107.763 22.6C108.579 22.6 109.195 22.384 109.611 21.952C110.027 21.504 110.235 20.872 110.235 20.056V12.424C110.235 11.592 110.027 10.96 109.611 10.528C109.195 10.096 108.579 9.88 107.763 9.88C106.947 9.88 106.331 10.096 105.915 10.528C105.499 10.96 105.291 11.592 105.291 12.424V20.056C105.291 20.872 105.499 21.504 105.915 21.952C106.347 22.384 106.963 22.6 107.763 22.6ZM136.592 25.24C135.392 25.24 134.352 25.04 133.472 24.64C132.592 24.24 131.912 23.672 131.432 22.936C130.968 22.184 130.728 21.304 130.712 20.296H133.712C133.712 21.016 133.968 21.584 134.48 22C135.008 22.4 135.72 22.6 136.616 22.6C137.48 22.6 138.152 22.4 138.632 22C139.128 21.6 139.376 21.048 139.376 20.344C139.376 19.752 139.2 19.24 138.848 18.808C138.512 18.36 138.024 18.056 137.384 17.896L135.368 17.344C133.992 16.992 132.928 16.36 132.176 15.448C131.44 14.536 131.072 13.432 131.072 12.136C131.072 11.144 131.296 10.28 131.744 9.544C132.192 8.808 132.824 8.24 133.64 7.84C134.472 7.44 135.448 7.24 136.568 7.24C138.264 7.24 139.608 7.68 140.6 8.56C141.592 9.424 142.096 10.592 142.112 12.064H139.112C139.112 11.376 138.888 10.84 138.44 10.456C137.992 10.056 137.36 9.856 136.544 9.856C135.76 9.856 135.152 10.04 134.72 10.408C134.288 10.776 134.072 11.296 134.072 11.968C134.072 12.576 134.232 13.096 134.552 13.528C134.888 13.944 135.368 14.24 135.992 14.416L138.08 14.992C139.472 15.344 140.536 15.976 141.272 16.888C142.008 17.784 142.376 18.896 142.376 20.224C142.376 21.216 142.136 22.096 141.656 22.864C141.176 23.616 140.504 24.2 139.64 24.616C138.776 25.032 137.76 25.24 136.592 25.24ZM151.03 25.24C149.91 25.24 148.926 25.032 148.078 24.616C147.246 24.184 146.598 23.584 146.134 22.816C145.686 22.032 145.462 21.112 145.462 20.056V12.424C145.462 11.352 145.686 10.432 146.134 9.664C146.598 8.896 147.246 8.304 148.078 7.888C148.926 7.456 149.91 7.24 151.03 7.24C152.166 7.24 153.142 7.456 153.958 7.888C154.79 8.304 155.438 8.896 155.902 9.664C156.366 10.432 156.598 11.352 156.598 12.424H153.574C153.574 11.592 153.35 10.96 152.902 10.528C152.47 10.096 151.846 9.88 151.03 9.88C150.214 9.88 149.582 10.096 149.134 10.528C148.686 10.96 148.462 11.584 148.462 12.4V20.056C148.462 20.872 148.686 21.504 149.134 21.952C149.582 22.384 150.214 22.6 151.03 22.6C151.846 22.6 152.47 22.384 152.902 21.952C153.35 21.504 153.574 20.872 153.574 20.056H156.598C156.598 21.096 156.366 22.008 155.902 22.792C155.438 23.576 154.79 24.184 153.958 24.616C153.142 25.032 152.166 25.24 151.03 25.24ZM158.965 25L163.381 7.48H167.245L171.685 25H168.613L167.653 20.752H162.997L162.037 25H158.965ZM163.549 18.304H167.101L166.045 13.6C165.869 12.816 165.717 12.112 165.589 11.488C165.461 10.848 165.373 10.384 165.325 10.096C165.277 10.384 165.189 10.848 165.061 11.488C164.949 12.112 164.797 12.808 164.605 13.576L163.549 18.304Z" fill="black"/>
<path d="M24.9832 22.1767C24.8197 21.9165 24.606 21.6914 24.3545 21.5148C24.1031 21.3381 23.8189 21.2133 23.5187 21.1477C22.37 20.8806 21.3738 20.1696 20.7477 19.1702C20.1217 18.1707 19.9166 16.9641 20.1775 15.814C20.2777 15.3695 20.2444 14.9053 20.0817 14.4796C19.919 14.0539 19.6342 13.6858 19.2629 13.4215C18.8917 13.1572 18.4507 13.0086 17.9952 12.9941C17.5397 12.9796 17.0901 13.1001 16.7029 13.3403C16.3157 13.5805 16.008 13.9298 15.8187 14.3443C15.6293 14.7588 15.5666 15.22 15.6385 15.67C15.7104 16.12 15.9136 16.5387 16.2227 16.8735C16.5318 17.2084 16.9329 17.4445 17.3757 17.5521C17.9486 17.6813 18.4903 17.9223 18.9698 18.2613C19.4494 18.6003 19.8573 19.0306 20.1702 19.5275C20.4831 20.0244 20.6948 20.5782 20.7933 21.1572C20.8918 21.7361 20.875 22.3288 20.744 22.9012C20.6664 23.2702 20.6802 23.6526 20.7843 24.0151C20.8884 24.3775 21.0795 24.709 21.341 24.9807C21.6026 25.2523 21.9266 25.4559 22.2848 25.5736C22.6431 25.6914 23.0246 25.7197 23.3963 25.6562C23.768 25.5927 24.1186 25.4392 24.4174 25.2092C24.7162 24.9791 24.9542 24.6795 25.1106 24.3364C25.2671 23.9933 25.3373 23.6172 25.3151 23.2407C25.2929 22.8643 25.1789 22.499 24.9832 22.1767Z" fill="black"/>
<path d="M10.7664 19.6099C11.1709 19.8306 11.6321 19.9255 12.0909 19.8823C12.5497 19.8391 12.985 19.6598 13.3412 19.3674C13.6974 19.075 13.9581 18.6828 14.0898 18.2413C14.2216 17.7997 14.2184 17.3288 14.0806 16.8891C13.9061 16.3284 13.8439 15.7387 13.8977 15.1539C13.9514 14.5691 14.1201 14.0006 14.394 13.4811C14.6679 12.9617 15.0416 12.5013 15.4937 12.1265C15.9459 11.7518 16.4676 11.47 17.0288 11.2972C17.4642 11.1608 17.8494 10.8988 18.1361 10.544C18.4228 10.1892 18.5982 9.75751 18.6401 9.30327C18.6821 8.84903 18.5888 8.39252 18.3719 7.99124C18.155 7.58992 17.8242 7.26172 17.4213 7.04795C17.0183 6.83418 16.5611 6.74436 16.1072 6.78984C15.6533 6.83529 15.223 7.01397 14.8704 7.30343C14.5179 7.59287 14.2588 7.98014 14.1258 8.41648C13.9928 8.85282 13.9918 9.31876 14.123 9.75564C14.4674 10.8835 14.351 12.1019 13.7992 13.1442C13.2473 14.1864 12.3051 14.9676 11.1787 15.3167C10.7341 15.4457 10.3383 15.7051 10.0428 16.0615C9.74722 16.4179 9.56545 16.8548 9.52102 17.3157C9.47662 17.7765 9.57157 18.2401 9.79361 18.6464C10.0156 19.0527 10.3545 19.383 10.7664 19.5945V19.6099Z" fill="black"/>
<path d="M16.7167 19.2322C16.4092 19.243 16.1071 19.315 15.8278 19.4441C15.5485 19.5731 15.2978 19.7565 15.0904 19.9837C14.2854 20.8446 13.1724 21.3519 11.9945 21.3945C10.8167 21.4371 9.66983 21.0116 8.80479 20.2111C8.58128 20.0014 8.31832 19.8382 8.03118 19.731C7.74407 19.6238 7.4385 19.5748 7.13224 19.5868C6.75528 19.6045 6.38837 19.7143 6.0636 19.9065C5.7388 20.0987 5.46601 20.3675 5.26901 20.6893C5.07198 21.0112 4.95675 21.3764 4.93333 21.7531C4.90994 22.1297 4.97907 22.5064 5.13473 22.8502C5.29039 23.194 5.5278 23.4945 5.8263 23.7254C6.12479 23.9563 6.47525 24.1106 6.84711 24.1749C7.21898 24.2393 7.60095 24.2116 7.95965 24.0943C8.31838 23.9771 8.64292 23.7738 8.90497 23.5022C9.30363 23.0706 9.78349 22.7219 10.3171 22.476C10.8508 22.2302 11.4276 22.092 12.0147 22.0695C12.6018 22.0469 13.1876 22.1404 13.7386 22.3446C14.2895 22.5488 14.7947 22.8597 15.2253 23.2594C15.5056 23.5127 15.8437 23.6935 16.21 23.7858C16.5763 23.8782 16.9597 23.8795 17.3266 23.7894C17.6935 23.6994 18.0327 23.5208 18.3147 23.2693C18.5966 23.0178 18.8126 22.7011 18.9438 22.3468C19.075 21.9925 19.1174 21.6115 19.0673 21.237C19.0172 20.8626 18.8761 20.5061 18.6563 20.1988C18.4366 19.8915 18.1449 19.6427 17.8068 19.4742C17.4686 19.3057 17.0944 19.2226 16.7167 19.2322Z" fill="black"/>
</g>
<defs>
<clipPath id="clip0_601_10">
<rect width="176" height="32" fill="white"/>
</clipPath>
</defs>
</svg>
