<svg width="32" height="32" viewBox="0 0 32 32" fill="none" xmlns="http://www.w3.org/2000/svg">
<g clip-path="url(#clip0_601_24)">
<path d="M25.9832 22.1767C25.8197 21.9165 25.606 21.6914 25.3545 21.5148C25.1031 21.3381 24.8189 21.2133 24.5187 21.1477C23.37 20.8806 22.3738 20.1696 21.7477 19.1702C21.1217 18.1707 20.9166 16.9641 21.1775 15.814C21.2777 15.3695 21.2444 14.9053 21.0817 14.4796C20.919 14.0539 20.6342 13.6858 20.2629 13.4215C19.8917 13.1572 19.4507 13.0086 18.9952 12.9941C18.5397 12.9796 18.0901 13.1001 17.7029 13.3403C17.3157 13.5805 17.008 13.9298 16.8187 14.3443C16.6293 14.7588 16.5666 15.22 16.6385 15.67C16.7104 16.12 16.9136 16.5387 17.2227 16.8735C17.5318 17.2084 17.9329 17.4445 18.3757 17.5521C18.9486 17.6813 19.4903 17.9223 19.9698 18.2613C20.4494 18.6003 20.8573 19.0306 21.1702 19.5275C21.4831 20.0244 21.6948 20.5782 21.7933 21.1572C21.8918 21.7361 21.875 22.3288 21.744 22.9012C21.6664 23.2702 21.6802 23.6526 21.7843 24.0151C21.8884 24.3775 22.0795 24.709 22.341 24.9807C22.6026 25.2523 22.9266 25.4559 23.2848 25.5736C23.6431 25.6914 24.0246 25.7197 24.3963 25.6562C24.768 25.5927 25.1186 25.4392 25.4174 25.2092C25.7162 24.9791 25.9542 24.6795 26.1106 24.3364C26.2671 23.9933 26.3373 23.6172 26.3151 23.2407C26.2929 22.8643 26.1789 22.499 25.9832 22.1767Z" fill="black"/>
<path d="M11.7664 19.6099C12.1709 19.8306 12.6321 19.9255 13.0909 19.8823C13.5497 19.8391 13.985 19.6598 14.3412 19.3674C14.6974 19.075 14.9581 18.6828 15.0898 18.2413C15.2216 17.7997 15.2184 17.3288 15.0806 16.8891C14.9061 16.3284 14.8439 15.7387 14.8977 15.1539C14.9514 14.5691 15.1201 14.0006 15.394 13.4811C15.6679 12.9617 16.0416 12.5013 16.4937 12.1265C16.9459 11.7518 17.4676 11.47 18.0288 11.2972C18.4642 11.1608 18.8494 10.8988 19.1361 10.544C19.4228 10.1892 19.5982 9.75751 19.6401 9.30327C19.6821 8.84903 19.5888 8.39252 19.3719 7.99124C19.155 7.58992 18.8242 7.26172 18.4213 7.04795C18.0183 6.83418 17.5611 6.74436 17.1072 6.78984C16.6533 6.83529 16.223 7.01397 15.8704 7.30343C15.5179 7.59287 15.2588 7.98014 15.1258 8.41648C14.9928 8.85282 14.9918 9.31876 15.123 9.75564C15.4674 10.8835 15.351 12.1019 14.7992 13.1442C14.2473 14.1864 13.3051 14.9676 12.1787 15.3167C11.7341 15.4457 11.3383 15.7051 11.0428 16.0615C10.7472 16.4179 10.5655 16.8548 10.521 17.3157C10.4766 17.7765 10.5716 18.2401 10.7936 18.6464C11.0156 19.0527 11.3545 19.383 11.7664 19.5945V19.6099Z" fill="black"/>
<path d="M17.7167 19.2322C17.4092 19.243 17.1071 19.315 16.8278 19.4441C16.5485 19.5731 16.2978 19.7565 16.0904 19.9837C15.2854 20.8446 14.1724 21.3519 12.9945 21.3945C11.8167 21.4371 10.6698 21.0116 9.80479 20.2111C9.58128 20.0014 9.31832 19.8382 9.03118 19.731C8.74407 19.6238 8.4385 19.5748 8.13224 19.5868C7.75528 19.6045 7.38837 19.7143 7.0636 19.9065C6.7388 20.0987 6.46601 20.3675 6.26901 20.6893C6.07198 21.0112 5.95675 21.3764 5.93333 21.7531C5.90994 22.1297 5.97907 22.5064 6.13473 22.8502C6.29039 23.194 6.5278 23.4945 6.8263 23.7254C7.12479 23.9563 7.47525 24.1106 7.84711 24.1749C8.21898 24.2393 8.60095 24.2116 8.95965 24.0943C9.31838 23.9771 9.64292 23.7738 9.90497 23.5022C10.3036 23.0706 10.7835 22.7219 11.3171 22.476C11.8508 22.2302 12.4276 22.092 13.0147 22.0695C13.6018 22.0469 14.1876 22.1404 14.7386 22.3446C15.2895 22.5488 15.7947 22.8597 16.2253 23.2594C16.5056 23.5127 16.8437 23.6935 17.21 23.7858C17.5763 23.8782 17.9597 23.8795 18.3266 23.7894C18.6935 23.6994 19.0327 23.5208 19.3147 23.2693C19.5966 23.0178 19.8126 22.7011 19.9438 22.3468C20.075 21.9925 20.1174 21.6115 20.0673 21.237C20.0172 20.8626 19.8761 20.5061 19.6563 20.1988C19.4366 19.8915 19.1449 19.6427 18.8068 19.4742C18.4686 19.3057 18.0944 19.2226 17.7167 19.2322Z" fill="black"/>
</g>
<defs>
<clipPath id="clip0_601_24">
<rect width="32" height="32" fill="white"/>
</clipPath>
</defs>
</svg>
